<svg width="83" height="41" viewBox="0 0 83 41" fill="none" xmlns="http://www.w3.org/2000/svg">
<path d="M27.4176 8.83011C27.8011 8.47473 28.3936 8.47474 28.7771 8.83011L50.5598 29.0167C51.2268 29.6348 50.7895 30.7502 49.8801 30.7502H6.31459C5.40524 30.7502 4.96789 29.6348 5.63487 29.0167L27.4176 8.83011Z" fill="#FFFBFB"/>
<path d="M62.4077 12.9178C62.6639 12.2893 63.4967 12.1542 64.0187 12.6564L81.251 29.2348C81.908 29.8669 81.5316 30.9174 80.648 30.9174L56.6581 30.9173C55.9212 30.9173 55.3811 30.1559 55.6501 29.4961L62.4077 12.9178Z" fill="#FFFBFB"/>
<path d="M44.2306 0.763656C44.6249 0.348442 45.2866 0.34844 45.6809 0.763653L72.5519 29.0614C73.1569 29.6984 72.7053 30.75 71.8268 30.75H18.0848C17.2063 30.75 16.7547 29.6985 17.3596 29.0614L44.2306 0.763656Z" fill="#FFFBFB"/>
</svg>
